<?xml version="1.0" standalone="no"?>
<!DOCTYPE svg PUBLIC "-//W3C//DTD SVG 20010904//EN"
 "http://www.w3.org/TR/2001/REC-SVG-20010904/DTD/svg10.dtd">
<svg version="1.0" xmlns="http://www.w3.org/2000/svg"
 width="128.000000pt" height="128.000000pt" viewBox="0 0 128.000000 128.000000"
 preserveAspectRatio="xMidYMid meet">

<g transform="translate(0.000000,128.000000) scale(0.100000,-0.100000)"
fill="#432f00" stroke="none">
<path d="M480 1110 l0 -80 -40 0 -40 0 0 -40 0 -40 240 0 240 0 0 40 0 40 -40
0 -40 0 0 80 0 80 -160 0 -160 0 0 -80z"/>
</g>
<g transform="translate(0.000000,128.000000) scale(0.100000,-0.100000)"
fill="#fc3f00" stroke="none">
<path d="M160 840 l0 -80 40 0 40 0 0 -40 0 -40 40 0 40 0 0 -40 0 -40 -40 0
-40 0 0 -40 0 -40 -40 0 -40 0 0 -40 0 -40 40 0 40 0 0 -40 0 -40 -40 0 -40 0
0 -40 0 -40 40 0 40 0 0 40 0 40 400 0 400 0 0 -40 0 -40 40 0 40 0 0 40 0 40
-40 0 -40 0 0 40 0 40 40 0 40 0 0 40 0 40 -40 0 -40 0 0 40 0 40 -40 0 -40 0
0 40 0 40 40 0 40 0 0 40 0 40 40 0 40 0 0 80 0 80 -40 0 -40 0 0 -80 0 -80
-40 0 -40 0 0 80 0 80 -40 0 -40 0 0 -80 0 -80 40 0 40 0 0 -40 0 -40 -80 0
-80 0 0 80 0 80 -40 0 -40 0 0 -80 0 -80 -80 0 -80 0 0 80 0 80 -40 0 -40 0 0
-80 0 -80 -80 0 -80 0 0 40 0 40 40 0 40 0 0 80 0 80 -40 0 -40 0 0 -80 0 -80
-40 0 -40 0 0 80 0 80 -40 0 -40 0 0 -80z m160 -360 l0 -40 -40 0 -40 0 0 40
0 40 40 0 40 0 0 -40z m720 0 l0 -40 -40 0 -40 0 0 40 0 40 40 0 40 0 0 -40z"/>
</g>
</svg>
