<?xml version="1.0" standalone="no"?>
<!DOCTYPE svg PUBLIC "-//W3C//DTD SVG 20010904//EN"
 "http://www.w3.org/TR/2001/REC-SVG-20010904/DTD/svg10.dtd">
<svg version="1.0" xmlns="http://www.w3.org/2000/svg"
 width="128.000000pt" height="128.000000pt" viewBox="0 0 128.000000 128.000000"
 preserveAspectRatio="xMidYMid meet">

#hat
<g transform="translate(0.000000,128.000000) scale(8.000000,-8.000000)"
fill="#432f00" stroke="none">
<path d="m5 13 1 0 0 2 4 0 0 -2 1 0 0 -1 -6 0 0 1z"/>
</g>

#left crab claw
<g transform="translate(0.000000,128.000000) scale(8.000000,-8.000000)"
fill="#fc3f00" stroke="none">
<path d="m2 12 1 0 0 -2 -1 0 0 2z"/>
</g>
<g transform="translate(0.000000,128.000000) scale(8.000000,-8.000000)"
fill="#fc3f00" stroke="none">
<path d="m4 12 1 0 0 -2 -1 0 0 2z"/>
</g>
<g transform="translate(0.000000,128.000000) scale(8.000000,-8.000000)"
fill="#fc3f00" stroke="none">
<path d="m3 10 1 0 0 -1 -1 0 0 1z"/>
</g>

#left leg
<g transform="translate(0.000000,128.000000) scale(8.000000,-8.000000)"
fill="#fc3f00" stroke="none">
<path d="m2 7 1 0 0 -1 -1 0 0 1z"/>
</g>
<g transform="translate(0.000000,128.000000) scale(8.000000,-8.000000)"
fill="#fc3f00" stroke="none">
<path d="m2 5 1 0 0 -1 -1 0 0 1z"/>
</g>

#right crab claw
<g transform="translate(0.000000,128.000000) scale(8.000000,-8.000000)"
fill="#fc3f00" stroke="none">
<path d="m11 12 1 0 0 -2 -1 0 0 2z"/>
</g>
<g transform="translate(0.000000,128.000000) scale(8.000000,-8.000000)"
fill="#fc3f00" stroke="none">
<path d="m13 12 1 0 0 -2 -1 0 0 2z"/>
</g>
<g transform="translate(0.000000,128.000000) scale(8.000000,-8.000000)"
fill="#fc3f00" stroke="none">
<path d="m12 10 1 0 0 -1 -1 0 0 1z"/>
</g>

#right leg
<g transform="translate(0.000000,128.000000) scale(8.000000,-8.000000)"
fill="#fc3f00" stroke="none">
<path d="m13 7 1 0 0 -1 -1 0 0 1z"/>
</g>
<g transform="translate(0.000000,128.000000) scale(8.000000,-8.000000)"
fill="#fc3f00" stroke="none">
<path d="m13 5 1 0 0 -1 -1 0 0 1z"/>
</g>

#body
<g transform="translate(0.000000,128.000000) scale(8.000000,-8.000000)"
fill="#fc3f00" stroke="none">
<path d="m4 9 2 0 0 2 1 0 0 -2 2 0 0 2 1 0 0 -2 2 0 0 -1 1 0 0 -1 -1 0 0 -1 1 0 0 -1 -10 0 0 1 1 0 0 1 -1 0 0 1 1 0 0 1z"/>
</g>

</svg>